PathFileType	4	(X/Y/Z)	C:/Users/Carlo/Dropbox/Carlos/SARAH/CongressoMarcha2025/WorkshopOpenSim/C3D/Caso03/pyCGM2 Walking02.c3d.trc
DataRate	CameraRate	NumFrames	NumMarkers	Units	OrigDataRate	OrigDataStartFrame	OrigNumFrames
100.000000	100.000000	2	163	mm	100.000000	382	510
Frame#	Time	PELO			PELA			PELL			PELP			LFEO			LFEA			LFEL			LFEP			LTIO			LTIA			LTIL			LTIP			LFOO			LFOA			LFOL			LFOP			LTOO			LTOA			LTOL			LTOP			RFEO			RFEA			RFEL			RFEP			RTIO			RTIA			RTIL			RTIP			RFOO			RFOA			RFOL			RFOP			RTOO			RTOA			RTOL			RTOP			PELVIS_CGM_2.3O			PELVIS_CGM_2.3A			PELVIS_CGM_2.3L			PELVIS_CGM_2.3P			LFEMUR_CGM_2.3O			LFEMUR_CGM_2.3A			LFEMUR_CGM_2.3L			LFEMUR_CGM_2.3P			LTIBIA_CGM_2.3O			LTIBIA_CGM_2.3A			LTIBIA_CGM_2.3L			LTIBIA_CGM_2.3P			LFOOT_CGM_2.3O			LFOOT_CGM_2.3A			LFOOT_CGM_2.3L			LFOOT_CGM_2.3P			LTOES_CGM_2.3O			LTOES_CGM_2.3A			LTOES_CGM_2.3L			LTOES_CGM_2.3P			RFEMUR_CGM_2.3O			RFEMUR_CGM_2.3A			RFEMUR_CGM_2.3L			RFEMUR_CGM_2.3P			RTIBIA_CGM_2.3O			RTIBIA_CGM_2.3A			RTIBIA_CGM_2.3L			RTIBIA_CGM_2.3P			RFOOT_CGM_2.3O			RFOOT_CGM_2.3A			RFOOT_CGM_2.3L			RFOOT_CGM_2.3P			RTOES_CGM_2.3O			RTOES_CGM_2.3A			RTOES_CGM_2.3L			RTOES_CGM_2.3P			LASI			RASI			LPSI			RPSI			LTHI			LTHAP			LTHAD			LKNE			LTIB			LTIAP			LTIAD			LANK			LHEE			LTOE			RTHI			RTHAP			RTHAD			RKNE			RTIB			RTIAP			RTIAD			RANK			RHEE			RTOE			LHipAngles			LKneeAngles			LAbsAnkleAngle			LAnkleAngles			RHipAngles			RKneeAngles			RAnkleAngles			RAbsAnkleAngle			LPelvisAngles			RPelvisAngles			LFootProgressAngles			RFootProgressAngles			LHipAngles_CGM_2.3			LKneeAngles_CGM_2.3			LAnkleAngles_CGM_2.3			RHipAngles_CGM_2.3			RKneeAngles_CGM_2.3			RAnkleAngles_CGM_2.3			LFootProgressAngles_CGM_2.3			RFootProgressAngles_CGM_2.3			LPelvisAngles_CGM_2.3			RPelvisAngles_CGM_2.3			LHipPower			LKneePower			LAnklePower			RHipPower			RKneePower			RAnklePower			LHipPower_CGM_2.3			LKneePower_CGM_2.3			LAnklePower_CGM_2.3			RHipPower_CGM_2.3			RKneePower_CGM_2.3			RAnklePower_CGM_2.3			RGroundReactionForce			RNormalisedGRF			LAnkleForce			RAnkleForce			RKneeForce			LKneeForce			RHipForce			LHipForce			LHipForce_CGM_2.3			LKneeForce_CGM_2.3			LAnkleForce_CGM_2.3			RHipForce_CGM_2.3			RKneeForce_CGM_2.3			RAnkleForce_CGM_2.3			RGroundReactionMoment			LAnkleMoment			RAnkleMoment			RKneeMoment			LKneeMoment			RHipMoment			LHipMoment			LHipMoment_CGM_2.3			LKneeMoment_CGM_2.3			LAnkleMoment_CGM_2.3			RHipMoment_CGM_2.3			RKneeMoment_CGM_2.3			RAnkleMoment_CGM_2.3			LHJC_CGM_2.3			LKJC_CGM_2.3			RHJC_CGM_2.3			RKJC_CGM_2.3			LAJC_CGM_2.3			RAJC_CGM_2.3			
		X1	Y1	Z1	X2	Y2	Z2	X3	Y3	Z3	X4	Y4	Z4	X5	Y5	Z5	X6	Y6	Z6	X7	Y7	Z7	X8	Y8	Z8	X9	Y9	Z9	X10	Y10	Z10	X11	Y11	Z11	X12	Y12	Z12	X13	Y13	Z13	X14	Y14	Z14	X15	Y15	Z15	X16	Y16	Z16	X17	Y17	Z17	X18	Y18	Z18	X19	Y19	Z19	X20	Y20	Z20	X21	Y21	Z21	X22	Y22	Z22	X23	Y23	Z23	X24	Y24	Z24	X25	Y25	Z25	X26	Y26	Z26	X27	Y27	Z27	X28	Y28	Z28	X29	Y29	Z29	X30	Y30	Z30	X31	Y31	Z31	X32	Y32	Z32	X33	Y33	Z33	X34	Y34	Z34	X35	Y35	Z35	X36	Y36	Z36	X37	Y37	Z37	X38	Y38	Z38	X39	Y39	Z39	X40	Y40	Z40	X41	Y41	Z41	X42	Y42	Z42	X43	Y43	Z43	X44	Y44	Z44	X45	Y45	Z45	X46	Y46	Z46	X47	Y47	Z47	X48	Y48	Z48	X49	Y49	Z49	X50	Y50	Z50	X51	Y51	Z51	X52	Y52	Z52	X53	Y53	Z53	X54	Y54	Z54	X55	Y55	Z55	X56	Y56	Z56	X57	Y57	Z57	X58	Y58	Z58	X59	Y59	Z59	X60	Y60	Z60	X61	Y61	Z61	X62	Y62	Z62	X63	Y63	Z63	X64	Y64	Z64	X65	Y65	Z65	X66	Y66	Z66	X67	Y67	Z67	X68	Y68	Z68	X69	Y69	Z69	X70	Y70	Z70	X71	Y71	Z71	X72	Y72	Z72	X73	Y73	Z73	X74	Y74	Z74	X75	Y75	Z75	X76	Y76	Z76	X77	Y77	Z77	X78	Y78	Z78	X79	Y79	Z79	X80	Y80	Z80	X81	Y81	Z81	X82	Y82	Z82	X83	Y83	Z83	X84	Y84	Z84	X85	Y85	Z85	X86	Y86	Z86	X87	Y87	Z87	X88	Y88	Z88	X89	Y89	Z89	X90	Y90	Z90	X91	Y91	Z91	X92	Y92	Z92	X93	Y93	Z93	X94	Y94	Z94	X95	Y95	Z95	X96	Y96	Z96	X97	Y97	Z97	X98	Y98	Z98	X99	Y99	Z99	X100	Y100	Z100	X101	Y101	Z101	X102	Y102	Z102	X103	Y103	Z103	X104	Y104	Z104	X105	Y105	Z105	X106	Y106	Z106	X107	Y107	Z107	X108	Y108	Z108	X109	Y109	Z109	X110	Y110	Z110	X111	Y111	Z111	X112	Y112	Z112	X113	Y113	Z113	X114	Y114	Z114	X115	Y115	Z115	X116	Y116	Z116	X117	Y117	Z117	X118	Y118	Z118	X119	Y119	Z119	X120	Y120	Z120	X121	Y121	Z121	X122	Y122	Z122	X123	Y123	Z123	X124	Y124	Z124	X125	Y125	Z125	X126	Y126	Z126	X127	Y127	Z127	X128	Y128	Z128	X129	Y129	Z129	X130	Y130	Z130	X131	Y131	Z131	X132	Y132	Z132	X133	Y133	Z133	X134	Y134	Z134	X135	Y135	Z135	X136	Y136	Z136	X137	Y137	Z137	X138	Y138	Z138	X139	Y139	Z139	X140	Y140	Z140	X141	Y141	Z141	X142	Y142	Z142	X143	Y143	Z143	X144	Y144	Z144	X145	Y145	Z145	X146	Y146	Z146	X147	Y147	Z147	X148	Y148	Z148	X149	Y149	Z149	X150	Y150	Z150	X151	Y151	Z151	X152	Y152	Z152	X153	Y153	Z153	X154	Y154	Z154	X155	Y155	Z155	X156	Y156	Z156	X157	Y157	Z157	X158	Y158	Z158	X159	Y159	Z159	X160	Y160	Z160	X161	Y161	Z161	X162	Y162	Z162	X163	Y163	Z163	

383	3.82	1722.116088867188	891.6648559570317	72.37892150878909	1883.337646484376	874.6799926757817	74.47645568847659	1724.100830078126	890.484252929688	-89.7319030761719	1739.114501953126	1052.895751953125	71.41281890869143	1853.136108398438	501.1025695800784	-26.60621833801271	2242.461914062501	634.3148193359377	-41.85219573974611	1832.911865234376	513.1607055664065	-437.7001037597659	1720.588256835938	890.5402221679692	-8.662450790405277	1744.943603515626	116.830421447754	4.074176311492922	2109.783203125001	12.50946044921876	-15.96308135986329	1717.719238281251	94.28849792480472	-374.2682189941407	1847.623657226563	481.5238342285159	-25.04308319091798	1866.197998046876	75.49467468261722	-19.58559226989747	1906.464477539063	252.5310821533204	-31.4511127471924	1846.140258789063	67.94715881347659	-200.2643127441407	1689.901733398438	116.788917541504	-1.739334106445313	1924.963378906251	61.72991180419925	-25.53436088562013	1938.385498046876	120.7420272827149	-29.48953247070314	1918.277465820313	59.21406555175784	-85.76060485839847	1866.197998046876	75.49464416503909	-19.58562088012696	1671.201538085938	472.8034667968752	138.3977661132813	2080.897705078126	418.3389892578127	230.8465576171876	1764.812133789063	475.8882446289065	-274.6296386718751	1723.644042968751	892.7895507812505	153.4203338623047	1572.403686523438	85.70195007324222	111.5184478759766	1926.777099609376	-11.52145385742188	209.1376800537111	1673.303955078126	85.40410614013675	-255.0623931884767	1666.217529296876	453.275085449219	137.0417785644532	1695.968139648438	66.72113800048831	145.6695404052735	1704.408935546876	247.3695068359376	153.0937500000001	1728.769531250001	72.50004577636722	-32.23744201660158	1518.167602539063	76.36322021484378	113.2010192871094	1755.234985351563	63.50709533691409	156.4923858642579	1758.048583984376	123.7232208251954	158.9671630859376	1766.168823242188	65.43343353271487	97.19005584716803	1695.968139648438	66.7211608886719	145.6695098876954	1716.630004882813	909.8920288085942	68.30429840087893	1876.523925781251	896.0158081054692	71.65946960449222	1719.857666015626	908.2790527343755	-92.18514251708987	1730.536376953126	1069.813110351563	66.97672271728518	1863.939941406251	497.6489868164065	-29.80179977416994	2270.373291015626	645.8078613281252	-83.7199401855469	1807.157226562501	496.1203918457034	-462.028259277344	1716.855102539063	907.6403808593755	-11.92884826660157	1749.380004882813	113.0650024414063	2.488219976425172	2105.409423828126	-5.249343872070314	-143.5157012939454	1600.413452148438	126.0564880371094	-371.2931213378907	1863.941772460938	497.6495056152346	-29.80217361450197	1876.670043945313	74.59690093994143	2.87081003189087	1913.876220703126	255.926971435547	-12.23344993591309	1856.216430664063	63.44569778442386	-181.3853607177735	1695.865234375001	113.1725463867188	20.60666275024415	1936.939941406251	61.73830032348636	-3.041140079498293	1949.341918945313	122.1815948486329	-8.075887680053714	1930.122070312501	58.02123641967776	-64.45979309082034	1876.671752929688	74.59683227539065	2.87080478668213	1670.430053710938	472.4800109863284	140.041000366211	2101.985351562501	425.7259216308596	224.0923767089845	1754.908569335938	472.0325927734377	-293.9562377929689	1716.407836914063	912.1437988281255	148.5374298095704	1570.819946289063	86.93129730224612	111.359001159668	1940.708129882813	-16.71842956542969	220.1269683837892	1683.304687500001	86.36885070800784	-271.7047729492189	1670.423828125001	472.4794921875002	140.0410766601563	1706.060058593751	68.17690277099612	123.0169982910157	1714.225463867188	259.2024230957032	131.1301574707032	1740.802490234376	74.67986297607425	-65.06256103515628	1518.045288085938	77.67475891113284	88.61495208740237	1768.729980468751	65.01090240478518	134.4839935302735	1771.451782226563	128.6860046386719	137.1883850097657	1780.310791015626	67.17855072021487	71.79087829589847	1706.058471679688	68.1768493652344	123.0166549682618	1774.099975585938	974.3297729492192	-58.71093750000003	1770.889892578126	976.2392578125005	203.4844055175782	1578.917114257813	992.1740112304692	12.73745727539063	1576.949218750001	999.3175659179692	114.9696502685547	1802.546386718751	657.7443847656252	-105.4272689819337	1849.138549804688	805.193969726563	-48.53028488159183	1911.025756835938	657.456237792969	-35.16865921020509	1850.287231445313	502.8009948730471	-84.51131439208987	1770.023803710938	279.9040832519532	-69.38257598876956	1884.273925781251	395.7324829101565	-8.7412223815918	1819.423706054688	229.6961822509767	10.42958354949952	1732.397460937501	109.9679641723633	-36.47829818725587	1694.430175781251	90.16639709472659	15.2670431137085	1874.676757812501	51.9085388183594	-6.838577747344974	1675.594238281251	689.3389282226565	238.5660858154298	1797.937377929688	760.8563232421877	185.9318084716797	1764.687988281251	592.922790527344	165.2132720947266	1658.492187500001	472.3846130371096	194.4740142822267	1598.480957031251	299.0303955078126	199.5325469970704	1658.593017578126	321.0686645507814	111.3210449218751	1630.015625000001	186.4814147949219	112.5312500000001	1557.304443359376	76.46735382080081	150.7069549560547	1514.403686523438	51.95557785034183	99.29691314697271	1702.797119140626	42.8052101135254	131.8900909423829	-3.118458509445192	-2.654271125793458	24.78655242919923	5.240355968475344	0.1468156427145005	34.83431243896486	0	0	2.953222990036012	-0.06886606663465503	8.49086952209473	2.985952854156495	2.359712839126588	-11.86832523345948	-1.130014657974244	0.2227285355329515	-2.650462865829469	7.412879467010502	-2.072297334671021	7.249570369720463	11.80360126495362	0	0	11.7079029083252	-0.3414146602153779	0.7413063645362856	6.018389225006107	0.3414146602153779	-0.7413063645362856	6.018389225006107	3.757344245910646	-5.628972530364992	-76.8171310424805	2.389609575271607	-10.33401584625244	-86.89588928222659	-3.280339956283571	-8.002070426940922	24.65660095214845	2.241309881210328	-14.21720027923585	36.89500045776369	-1.962200045585633	16.156400680542	5.153170108795168	1.553599953651429	-9.754449844360355	-1.033069968223572	1.365350008010865	-5.173049926757814	8.922189712524418	-1.73216998577118	5.992209911346437	12.19550037384034	-4.686309814453127	-174.520004272461	-102.0439987182618	-177.5299835205079	10.35610008239746	87.1080017089844	180.5760040283204	1.152140021324158	-175.041000366211	-180.5760040283204	-1.152140021324158	-175.041000366211	0	0.0560521446168423	0	0	-0.1567823737859727	0	0	-0.004635689314454796	0	nan	nan	nan	nan	nan	nan	nan	nan	nan	nan	nan	nan	nan	nan	nan	nan	nan	nan	nan	nan	nan	nan	nan	nan	nan	nan	nan	nan	nan	nan	nan	nan	nan	-0.006561830639839176	-0.05812602490186694	-0.2767160236835481	nan	nan	nan	nan	nan	nan	-0.07832023501396182	0.8278267979621892	-0.2629244923591615	nan	nan	nan	0.001719809486530722	1.572820186614991	0.3150401711463929	-0.1271860003471375	1.519889950752259	-0.07568710297346118	-0.04639260098338129	0.779106974601746	0.3452869951725007	-0.008601900190114978	-0.03297150135040285	0.3150649964809419	0.01026729959994555	1.481860041618348	-0.07483900338411334	0.01821850053966046	0.5930719971656802	0.07351990044116977	-0.001279299962334335	-0.004601439926773311	0.1458120048046113	nan	nan	nan	-3.112200006779037e-15	2.339601278305055	-20.81198883056641	nan	nan	nan	nan	nan	nan	-29.63049888610841	2.201353549957276	-24.15994834899904	nan	nan	nan	-37.20547485351564	16.87211418151856	-34.72934722900392	-57.85219955444339	16.19120025634766	57.54919815063479	-26.23410034179689	2.034009933471681	-37.90209960937501	-1.682700037956239	2.377880096435548	-6.798850059509281	-27.10449981689455	-0.7206100225448611	-22.33539962768555	-2.361279964447022	-0.3885410130023959	-29.85149955749513	-0.638328015804291	-0.1688439995050431	-3.965049982070925	1716.849975585938	907.640991210938	-11.92889976501465	1863.939941406251	497.6489868164065	-29.80179977416994	1716.410034179688	912.1439819335942	148.5370025634766	1670.430053710938	472.4800109863284	140.041000366211	1749.380004882813	113.0650024414063	2.488219976425172	1570.819946289063	86.93129730224612	111.359001159668	
384	3.83	1734.056884765626	890.291870117188	72.7349548339844	1895.227661132813	872.930786132813	75.53373718261722	1736.731567382813	888.9898071289067	-89.36509704589847	1751.437500000001	1051.481689453125	71.72700500488284	1867.805297851563	499.9836425781252	-25.1232204437256	2256.537597656251	635.6380615234377	-45.0114212036133	1843.497680664063	509.3279113769534	-436.5020141601565	1732.872680664063	889.1123657226567	-8.311437606811527	1783.233520507813	108.4148406982422	3.080632925033571	2154.606689453126	26.36208343505861	-22.50570678710938	1752.522949218751	87.72139739990237	-376.305633544922	1863.509155273438	480.092712402344	-23.69049835205079	1907.009033203126	74.60028839111331	-19.44111633300782	1936.442504882813	253.7749938964845	-31.02416229248048	1889.118896484376	65.84769439697268	-200.2929992675782	1728.353759765626	104.9957733154297	-3.239320755004885	1966.560668945313	64.46845245361331	-24.84172439575197	1976.371826171876	124.1933593750001	-28.70273399353029	1960.597290039063	61.55092239379886	-85.12568664550784	1907.008911132813	74.60028076171878	-19.44112014770509	1676.631103515626	472.176452636719	138.5658111572266	2085.073974609376	411.6436157226565	233.3544311523439	1772.620605468751	473.7323303222659	-274.0578613281251	1735.241088867188	891.4712524414067	153.7813873291016	1573.161865234376	86.14929962158206	111.3487854003907	1925.983154296876	-15.43016052246094	210.7818908691407	1675.884643554688	84.43795013427737	-254.8934631347657	1671.413452148438	452.7102050781252	137.1933288574219	1696.584472656251	66.53936767578128	145.6569213867188	1705.990966796876	247.1475372314454	152.8976745605469	1729.612426757813	71.9504318237305	-32.2196502685547	1518.874389648438	77.10489654541018	112.9812622070313	1755.821166992188	63.01751708984378	156.548812866211	1758.956665039063	123.2202148437501	158.9624481201172	1766.830566406251	64.82125091552737	97.25661468505865	1696.584472656251	66.53938293457034	145.6568756103516	1728.479980468751	908.5380249023442	68.48989868164065	1888.315795898438	894.1807250976567	72.52353668212893	1732.370361328126	906.7645874023442	-91.98316955566409	1742.876708984376	1068.414916992188	67.07206726074222	1876.979980468751	496.4719848632815	-28.17110061645509	2283.365478515626	645.3173828125002	-80.53669738769534	1822.151855468751	494.017028808594	-460.6455383300784	1729.023925781251	906.210083007813	-11.73946762084961	1786.880004882813	105.2470016479493	1.795040011405946	2151.192871093751	10.41856384277344	-140.8791046142579	1641.172363281251	110.059669494629	-373.4627380371095	1876.977783203126	496.4715881347659	-28.17131996154787	1916.300048828126	74.72869873046878	3.269680023193361	1942.347656250001	258.0681457519532	-10.91502666473389	1898.292114257813	63.01446914672854	-181.2066650390626	1733.296630859376	101.9768371582032	19.40356826782227	1977.310058593751	65.64600372314456	-2.108249902725221	1985.992553710938	126.7590866088868	-6.836480140686039	1971.307373046876	61.74126434326175	-63.60029983520511	1916.308959960938	74.72870635986331	3.269706487655641	1675.750000000001	471.8940124511721	140.1999969482422	2106.377685546876	419.0603332519534	225.3993377685548	1761.356201171876	470.1377563476565	-293.5729370117189	1727.921875000001	910.8655395507817	148.7189483642579	1571.310058593751	87.66179656982425	111.0879974365235	1939.793457031251	-20.75617218017579	219.9754638671876	1684.010620117188	86.04479980468753	-271.9093017578126	1675.758666992188	471.8933410644534	140.2007904052735	1706.400024414063	68.073600769043	122.9800033569337	1715.740478515626	259.049530029297	130.9929656982422	1741.493164062501	74.24636840820315	-65.04557037353518	1518.505126953125	78.72011566162112	88.26076507568362	1769.030029296876	64.52469635009768	134.5540008544922	1772.143554687501	128.1832733154297	137.2249755859376	1780.727783203126	66.58228302001956	71.8788757324219	1706.398437500001	68.07353210449222	122.9809341430665	1786.795166015626	972.7398071289067	-58.24512100219729	1782.467285156251	974.846557617188	204.0426177978517	1591.338134765626	991.0307617187505	12.24803638458253	1588.964965820313	998.3765258789067	114.4463958740235	1815.317504882813	656.287048339844	-104.5892028808594	1861.532958984376	803.9397583007817	-47.59535217285158	1923.510375976563	656.6068115234377	-33.6871910095215	1864.384887695313	501.2984313964846	-83.00735473632815	1797.389404296876	273.5640869140626	-69.33347320556643	1903.368164062501	395.8237609863284	-7.008584022521976	1849.320922851563	226.1483612060548	10.80252075195313	1770.611816406251	101.1816940307618	-37.38389968872072	1733.264282226563	78.88313293457034	13.81711006164551	1915.951293945313	51.93991470336917	-6.543119430541996	1683.687988281251	688.709411621094	238.6979827880861	1807.262329101563	758.839538574219	186.3443145751954	1771.934082031251	591.1977539062502	165.6045074462891	1663.602539062501	471.9653015136721	194.5699615478517	1601.475219726563	299.2842407226564	199.3779602050782	1661.877075195313	320.6963500976564	111.363395690918	1631.703369140626	186.4497070312501	112.4026565551758	1557.758789062501	77.1195983886719	150.4667358398438	1514.69677734375	52.93371963500979	98.85074615478521	1702.859497070313	42.71957015991212	131.841049194336	-3.081713676452638	-3.511239051818849	25.24031257629396	4.575639247894289	-0.2676911056041719	31.63778877258302	0	0	2.874503850936891	-0.3718101382255555	9.816694259643558	2.917254447937013	2.382805347442628	-11.93687915802002	-1.844977736473084	0.2356040477752687	-2.603338479995728	7.269602775573734	-2.147234678268434	7.465606689453129	12.2051124572754	0	0	12.10008430480958	-0.3562016487121583	0.9891808629035954	6.154262065887455	0.3562016487121583	-0.9891808629035954	6.154262065887455	3.664625406265261	-5.108829021453859	-80.34443664550784	2.331030368804933	-10.40067958831787	-86.59754943847659	-3.22673010826111	-7.996810436248783	24.94239997863771	2.305229902267457	-13.84409999847413	33.35419845581056	-1.922569990158082	16.10569953918458	5.040689945220949	1.568330049514771	-9.658049583435062	-1.672549962997437	1.415869951248169	-5.038300037384035	8.853059768676761	-1.753250002861024	5.931739807128908	12.57509994506837	-4.396920204162599	-175.0160064697266	-98.46880340576178	-177.5599975585938	10.45259952545166	86.75700378417972	180.6329956054688	1.388769984245301	-174.8679962158204	-180.6329956054688	-1.388769984245301	-174.8679962158204	0	0.06476139277219775	0	0	-0.2135203927755357	0	0	-0.01116093900054694	0	nan	nan	nan	nan	nan	nan	nan	nan	nan	nan	nan	nan	nan	nan	nan	nan	nan	nan	nan	nan	nan	nan	nan	nan	nan	nan	nan	nan	nan	nan	nan	nan	nan	-0.01316971052438021	-0.06290607899427417	-0.2962655127048494	nan	nan	nan	nan	nan	nan	-0.08411762863397601	0.905055165290833	-0.2640621066093446	nan	nan	nan	-0.001136190141551197	1.665305018424989	0.351022243499756	-0.1362929940223694	1.592650055885316	-0.08209180086851123	-0.05517090111970904	0.8330550193786626	0.3625609874725343	-0.01026150025427342	-0.04628900066018106	0.3269560039043428	-0.006249379832297567	1.503209948539735	-0.05970289930701259	0.007601660210639242	0.6000170111656191	0.08130429685115817	-0.003992659971117975	-0.005015170201659204	0.1478330045938492	nan	nan	nan	1.464564752669772e-15	2.239981174468995	-21.54858779907227	nan	nan	nan	nan	nan	nan	-36.420467376709	2.18983292579651	-31.79333686828615	nan	nan	nan	-41.3856544494629	18.89262390136719	-35.94425582885744	-67.90329742431643	18.71409988403321	75.33670043945315	-33.75569915771486	2.165659904479981	-49.23730087280276	-1.898339986801148	2.496289968490601	-5.809020042419435	-17.74449920654298	-1.035099983215332	-11.50150012969971	0.04537050053477289	-0.2772659957408906	-30.8764991760254	-0.5536590218544009	-0.06953769922256473	-3.899300098419191	1729.030029296876	906.2100219726567	-11.73950004577637	1876.979980468751	496.4719848632815	-28.17110061645509	1727.930053710938	910.8649902343755	148.7189941406251	1675.750000000001	471.8940124511721	140.1999969482422	1786.880004882813	105.2470016479493	1.795040011405946	1571.310058593751	87.66179656982425	111.0879974365235	
